# xmcd CD database file
#
# Track frame offsets:
#	150
#	15760
#	31818
#	48975
#	63848
#	82469
#	101049
#	120299
#	138942
#	159605
#	175954
#	193292
#	211397
#	233450
#	247388
#	267060
#
# Disc length: 3920 seconds
#
# Revision: 0
# Processed by: cddbd v1.5.1PL2 Copyright (c) Steve Scherf et al.
# Submitted via: CdAid (MTCDDB.DLL V2003.07.15)
#
DISCID=d60f4e10
DTITLE=Rascal Flats - Me And My Gang
DYEAR=2006
DGENRE=Country
TTITLE0=Stand
TTITLE1=What Hurts The Most
TTITLE2=Backwards
TTITLE3=I Feel Bad
TTITLE4=My Wish
TTITLE5=Pieces
TTITLE6=Yes I Do
TTITLE7=To Make Her Love Me
TTITLE8=Words I Couldn't Say
TTITLE9=Me And My Gang
TTITLE10=Cool Thing
TTITLE11=Ellsworth
TTITLE12=He Ain't The Leavin' Kind
TTITLE13=Love You Out Loud
TTITLE14=Mayberry
TTITLE15=These Days
EXTD=ID3G:   2 YEAR: 2006
EXTT0=
EXTT1=
EXTT2=
EXTT3=
EXTT4=
EXTT5=
EXTT6=
EXTT7=
EXTT8=
EXTT9=
EXTT10=
EXTT11=
EXTT12=
EXTT13=
EXTT14=
EXTT15=
PLAYORDER=
